<svg height="512" viewBox="0 0 512 512" width="512" xmlns="http://www.w3.org/2000/svg" xmlns:xlink="http://www.w3.org/1999/xlink"><linearGradient id="a" gradientUnits="userSpaceOnUse" x1="256.009" x2="256.009" y1="15.981" y2="496.134"><stop offset="0" stop-color="#fde92b"/><stop offset=".057" stop-color="#fcdd2b"/><stop offset=".16" stop-color="#f9bf2c"/><stop offset=".296" stop-color="#f48d2c"/><stop offset=".459" stop-color="#ee482e"/><stop offset=".519" stop-color="#eb2d2e"/><stop offset=".571" stop-color="#d22e3b"/><stop offset=".724" stop-color="#8c2f60"/><stop offset=".851" stop-color="#59307b"/><stop offset=".947" stop-color="#3a318c"/><stop offset="1" stop-color="#2e3192"/></linearGradient><path d="m496.47 480.014-258.861-15.225c.126-.263.254-.526.378-.789h2.013c.167 0 .333 0 .5-.016l256-16a8 8 0 1 0 -1-15.968l-250.293 15.643c.747-2.007 3.211-5.323 2.747-8.441-2.97-12.451-.183-30.167.021-44.635 7.183-9.727 17.011-17.164 24.67-18.581 22.839-1.137 68.668 15.246 81.156 21.9 17.377 40.179 25.761 24.462 46.439 11.55l28.094-18.729c4.638-2.675 4.464-10.337 1.2-14.261-10.5-12.181-35.12-7.48-43.118-8.464-15.324-10.511-30.344-23.346-48.738-31.892a84.723 84.723 0 0 0 -25.662-7.624c.088-16.182.793-22.777 6.463-32.913 20.656-6.416 40.8-11.252 61.79-17.559 7.488 13.121 25.946 12.451 33.006-.242 32.542 2.511 41.327-38.867 25.9-44.941-25.287-.891-51.038 1.5-76.35 3.247 24.827-30.47 35.313-75.625 25.579-115.193 10.296-6.081 22.755-11.954 29.845-21.981 2.35-5.9-3.857-12.216-10.021-10.216-8.343 5.007-15.439 12.283-24.5 16.587-27.115-73.815-111.643-110.185-184.487-76.854-75.46 34.665-102.584 128.9-56.923 198.142a7.92 7.92 0 0 0 .783 1.188 137.075 137.075 0 0 0 41.339 39.853c-31.492 9.556-65.821 17.636-95.324 32.29-9.24 28.617 20.566 45.821 41.283 31.921 13.1 14.123 33.061 4.231 34.608-12.724 13.118-2.1 31.6-3.664 45.063-5.824l5.423 21.683c-6.676 14.382-26.119 48.669-23.337 51.412.639 8.213 3.371 41.561 6.912 58.7l-180.828-52.738a8 8 0 1 0 -4.48 15.36l178.911 52.179c-.636 1.343-1.218 2.622-1.731 3.817l-173.509-31.547a8 8 0 1 0 -2.862 15.742l172.97 31.449c3.221 20.563 30.723 13.744 40.444.931.04 0 254.266 14.955 267.054 15.706 6.988 1.933 15.418-12.532 1.433-15.943zm-281.929-39.108c-2.808-14.1-5.379-42.231-6.4-55.327q.783-1.586 1.614-3.264a43.518 43.518 0 0 1 22.2 12.418c-.261 12.741-2.363 28.855-.762 41.454-5.62 3.233-11.447 4.885-16.652 4.719zm57.459-80.906c-10.744 1.023-22.867 8.784-32.608 19.765a59.847 59.847 0 0 0 -22.375-12.1c4.3-8.664 8.469-17.028 11.1-22.247 24.761 6.2 53.876 5.669 78.874-1.3a56.068 56.068 0 0 1 10.758 1.713 49.126 49.126 0 0 0 -11.376 18.591 153.916 153.916 0 0 0 -34.373-4.422zm137 24.387-32.772 21.847c-2.6-2.53-4.547-6.708-6.82-12.428a45.985 45.985 0 0 1 16.004-9.806c5.588.051 18.473-.208 23.588.387zm-40.841-9.721a61.32 61.32 0 0 0 -9.9 7.666 304.779 304.779 0 0 0 -36.359-13.748 33.467 33.467 0 0 1 12.782-16.124c12.051 6.229 22.934 14.493 33.475 22.206zm57.5-116.446c-9.5 9.726-25-6.377-26.49 10.356.706 2.546-3.207 4.939-5.206 1.1-.311-3.279-.606-7.379-4.967-9.131-7.8-2.036-15.3 3.815-23.217 5.023a52.228 52.228 0 0 0 -.279-13.668c21.527-1.8 43.286-2.893 64.89-3.259a15.509 15.509 0 0 1 -4.73 9.579zm-169.659-226.22a120.2 120.2 0 0 1 113.173 80.1c-103.573 37.178-140.573-53.243-143.218-13.1 3.376 22.029-2.157 46.5-14.85 68.1-37.2-77.047-91.526 6.179-44.077 40.722a101.724 101.724 0 0 1 -14.075 5.607c-47.617-81.123 10.334-180.805 103.047-181.429zm-93.525 195.094c12.6-5.79 29.334-10.641 29.953-20.417a8.051 8.051 0 0 0 -6.233-7.5c-28.85-6.957-25.549-44.83-9.193-47.835 12.695 4.74 21 22.769 23.854 35.935a7.741 7.741 0 0 0 3.937 4.729c9.257 4.844 15.511-10.384 20.181-16.925a126.568 126.568 0 0 0 17.913-61.7c38.066 25.153 87.827 31.058 130.612 14.2 22.941 126.419-131.681 195.325-211.024 99.513zm-8.089 77.716c-12.147 2.689.3 19.3-10.952 17.228-6.725-11.351-10.151-16.238-20.425-4.557-8.787 6.367-18.393 3.361-19.238-7.214 22.07-8.2 44.68-15.679 67.358-22.289a28.075 28.075 0 0 1 6.45 13.266c-8.717 1.056-17.109 2.182-23.193 3.566zm59.834-8.61c-5.256 1.2-12.764 2.218-20.729 3.175a43.912 43.912 0 0 0 -5.963-16.032q9.135-2.495 18.5-4.855a135.966 135.966 0 0 0 140.165-24.788q1.684-.175 3.35-.341c1.086 5.625.694 12.337-1.1 17.031-12.906 4.112-27.986 6.419-40.719 12.576-11.28 15.607-11.383 26.687-11.72 47.413-21.526 4.767-45.126 4.509-65.366-.807-3.238-6.788-3.946-36.909-16.418-33.372zm-7.732 179.8a13.536 13.536 0 0 1 -3.012.482 19.609 19.609 0 0 1 .552-2.262c1.1-3.622 4.634-10.954 8.2-17.425a42.474 42.474 0 0 0 11.838-.813c-3.334 7.59-9.244 18.132-17.578 20.018zm66.6-315.924c9.229.217 10.7 24.062-1.086 23.927-10.853 1.062-12.031-26.051 1.084-23.93zm81 0c9.229.217 10.7 24.062-1.086 23.927-10.853 1.062-12.031-26.051 1.084-23.93zm-55.462 25.1c5.3-1.179 7.03 4.054 11.055 5.682a6.432 6.432 0 0 0 5.5-.9c14.638-9.75 22.748 18.572-6.589 16.97-10.603-.228-25.792-16.65-9.968-21.752z" fill="url(#a)"/></svg>